<?xml version="1.0" encoding="iso-8859-1"?>
<!-- Uploaded to: SVG Repo, www.svgrepo.com, Generator: SVG Repo Mixer Tools -->
<svg height="800px" width="800px" version="1.1" id="Layer_1" xmlns="http://www.w3.org/2000/svg" xmlns:xlink="http://www.w3.org/1999/xlink" 
	 viewBox="0 0 512 512" xml:space="preserve">
<path style="fill:#4E5058;" d="M444.66,33.67H25.119v470.313h461.762V75.891L444.66,33.67z M461.228,444.125h-42.756V401.37h42.756
	V444.125z"/>
<path style="fill:#E9E9EA;" d="M375.716,478.33H93.528c-9.446,0-17.102-7.656-17.102-17.102V256c0-9.446,7.656-17.102,17.102-17.102
	h282.188c9.446,0,17.102,7.656,17.102,17.102v205.228C392.818,470.673,385.162,478.33,375.716,478.33z"/>
<path style="fill:#D3D3D5;" d="M93.528,461.228V256c0-9.446,7.656-17.102,17.102-17.102H93.528c-9.446,0-17.102,7.656-17.102,17.102
	v205.228c0,9.445,7.656,17.102,17.102,17.102h17.102C101.185,478.33,93.528,470.672,93.528,461.228z"/>
<path style="fill:#FD5E95;" d="M392.818,256c0-9.446-8.854-17.102-19.775-17.102H96.2c-10.921,0-19.775,7.656-19.775,17.102v51.307
	h316.393V256z"/>
<path style="fill:#D14D7B;" d="M113.303,238.898H96.2c-10.921,0-19.775,7.656-19.775,17.102v51.307h17.102V256
	C93.528,246.554,102.382,238.898,113.303,238.898z"/>
<path style="fill:#A7A7AB;" d="M136.284,8.017v188.125h239.432V8.017H136.284z M341.511,170.489h-68.409V33.67h68.409V170.489z"/>
<polygon style="fill:#383A43;" points="290.205,153.386 290.205,33.67 273.102,33.67 273.102,153.386 273.102,170.489 
	290.205,170.489 341.511,170.489 341.511,153.386 "/>
<path d="M492.549,70.223l-42.221-42.221c-1.503-1.504-3.542-2.348-5.668-2.348h-60.927V8.017c0-4.427-3.589-8.017-8.017-8.017
	H136.284c-4.427,0-8.017,3.589-8.017,8.017v17.637H25.119c-4.427,0-8.017,3.589-8.017,8.017v85.511c0,4.427,3.589,8.017,8.017,8.017
	s8.017-3.589,8.017-8.017V41.687h95.132v154.455c0,4.427,3.589,8.017,8.017,8.017h239.432c4.427,0,8.017-3.589,8.017-8.017V41.687
	h57.607l37.525,37.525v416.755H33.136v-342.58c0-4.427-3.589-8.017-8.017-8.017s-8.017,3.589-8.017,8.017v350.597
	c0,4.427,3.589,8.017,8.017,8.017h461.762c4.427,0,8.017-3.589,8.017-8.017V75.891C494.898,73.765,494.053,71.726,492.549,70.223z
	 M367.699,188.125H144.301V16.033h223.399V188.125z"/>
<path d="M461.228,452.142c4.427,0,8.017-3.589,8.017-8.017V401.37c0-4.427-3.589-8.017-8.017-8.017h-42.756
	c-4.427,0-8.017,3.589-8.017,8.017v42.756c0,4.427,3.589,8.017,8.017,8.017H461.228z M426.489,409.386h26.722v26.722h-26.722
	V409.386z"/>
<path d="M375.716,486.347c13.851,0,25.119-11.268,25.119-25.119V256c0-13.851-11.268-25.119-25.119-25.119H93.528
	c-13.851,0-25.119,11.268-25.119,25.119v205.228c0,13.851,11.268,25.119,25.119,25.119H375.716z M84.443,461.228V315.324h86.046
	c4.427,0,8.017-3.589,8.017-8.017c0-4.427-3.589-8.017-8.017-8.017H84.443V256c0-5.01,4.076-9.086,9.086-9.086h282.188
	c5.01,0,9.086,4.076,9.086,9.086v43.29H204.693c-4.427,0-8.017,3.589-8.017,8.017c0,4.427,3.589,8.017,8.017,8.017h180.109v145.904
	c0,5.01-4.076,9.086-9.086,9.086H93.528C88.518,470.313,84.443,466.237,84.443,461.228z"/>
<path d="M341.511,25.653h-68.409c-4.427,0-8.017,3.589-8.017,8.017v136.818c0,4.427,3.589,8.017,8.017,8.017h68.409
	c4.427,0,8.017-3.589,8.017-8.017V33.67C349.528,29.243,345.939,25.653,341.511,25.653z M333.495,162.472h-52.376V41.687h52.376
	V162.472z"/>
<path d="M140.56,366.63h188.125c4.427,0,8.017-3.589,8.017-8.017c0-4.427-3.589-8.017-8.017-8.017H140.56
	c-4.427,0-8.017,3.589-8.017,8.017C132.543,363.041,136.132,366.63,140.56,366.63z"/>
<path d="M140.56,400.835h188.125c4.427,0,8.017-3.589,8.017-8.017c0-4.427-3.589-8.017-8.017-8.017H140.56
	c-4.427,0-8.017,3.589-8.017,8.017C132.543,397.246,136.132,400.835,140.56,400.835z"/>
<path d="M140.56,435.04h188.125c4.427,0,8.017-3.589,8.017-8.017c0-4.427-3.589-8.017-8.017-8.017H140.56
	c-4.427,0-8.017,3.589-8.017,8.017C132.543,431.45,136.132,435.04,140.56,435.04z"/>
</svg>